<svg xmlns="http://www.w3.org/2000/svg" xmlns:xlink="http://www.w3.org/1999/xlink" width="2560" height="1000" viewBox="0 0 2560 1000"><defs><linearGradient id="a" x2="1" y2="1" gradientUnits="objectBoundingBox"><stop offset="0" stop-color="#302a6d"/><stop offset="0.379" stop-color="#4134c3"/><stop offset="0.704" stop-color="#345dd9"/><stop offset="1" stop-color="#1d99be"/></linearGradient><clipPath id="b"><rect width="2560" height="1000" transform="translate(10547.266 -4285.021)" fill="#5b72b7"/></clipPath><filter id="c" x="-358.232" y="-838.918" width="3412.379" height="2770.916" filterUnits="userSpaceOnUse"><feOffset dx="4" dy="4" input="SourceAlpha"/><feGaussianBlur stdDeviation="4" result="d"/><feFlood flood-color="#302a6d" flood-opacity="0.478"/><feComposite operator="in" in2="d"/><feComposite in="SourceGraphic"/></filter></defs><g transform="translate(-10547.266 4285.021)"><rect width="2560" height="1000" transform="translate(10547.266 -4285.021)" fill="#5b72b7"/><rect width="2560" height="1000" transform="translate(10547.266 -4285.021)" opacity="0.8" fill="url(#a)"/><g clip-path="url(#b)"><g transform="matrix(1, 0, 0, 1, 10547.27, -4285.02)" filter="url(#c)"><path d="M-7328.093,2729.691l18.471-62.9,64.313-16.034,45.839,46.867-18.471,62.9-64.31,16.036Zm-187.412,0,18.472-62.9,64.31-16.034,45.841,46.867-18.471,62.9-64.311,16.036Zm-187.411,0,18.471-62.9,64.311-16.034,45.841,46.867-18.472,62.9-64.31,16.036Zm-187.412,0,18.472-62.9,64.31-16.034,45.841,46.867-18.471,62.9-64.311,16.036Zm-187.411,0,18.471-62.9,64.311-16.034,45.841,46.867-18.472,62.9-64.31,16.036Zm-187.411,0,18.469-62.9,64.313-16.034,45.839,46.867-18.469,62.9-64.312,16.036Zm-187.411,0,18.469-62.9,64.313-16.034,45.839,46.867-18.469,62.9-64.312,16.036Zm-187.414,0,18.472-62.9,64.313-16.034,45.839,46.867-18.472,62.9-64.311,16.036Zm-187.411,0,18.471-62.9,64.311-16.034,45.842,46.867-18.472,62.9-64.311,16.036Zm-187.412,0,18.472-62.9,64.311-16.034,45.841,46.867-18.471,62.9-64.311,16.036Zm-187.411,0,18.472-62.9,64.311-16.034,45.841,46.867-18.472,62.9-64.312,16.036Zm-187.411,0,18.472-62.9,64.31-16.034,45.842,46.867-18.472,62.9-64.312,16.036Zm-187.411,0,18.469-62.9,64.313-16.034,45.839,46.867-18.469,62.9-64.312,16.036Zm-187.411,0,18.469-62.9,64.313-16.034,45.839,46.867-18.469,62.9-64.312,16.036Zm-187.414,0,18.472-62.9,64.313-16.034,45.839,46.867-18.472,62.9-64.311,16.036Zm-187.411,0,18.471-62.9,64.311-16.034,45.842,46.867-18.472,62.9-64.311,16.036Zm2811.175-167.986,18.471-62.9,64.313-16.034,45.839,46.869-18.471,62.9-64.31,16.034Zm-187.412,0,18.472-62.9,64.31-16.034,45.841,46.869-18.471,62.9-64.311,16.034Zm-187.411,0,18.471-62.9,64.311-16.034,45.841,46.869-18.472,62.9-64.31,16.034Zm-187.412,0,18.472-62.9,64.31-16.034,45.841,46.869-18.471,62.9-64.311,16.034Zm-187.411,0,18.471-62.9,64.311-16.034,45.841,46.869-18.472,62.9-64.31,16.034Zm-187.411,0,18.469-62.9,64.313-16.034,45.839,46.869-18.469,62.9-64.312,16.034Zm-187.411,0,18.469-62.9,64.313-16.034,45.839,46.869-18.469,62.9-64.312,16.034Zm-187.414,0,18.472-62.9,64.313-16.034,45.839,46.869-18.472,62.9-64.311,16.034Zm-187.411,0,18.471-62.9,64.311-16.034,45.842,46.869-18.472,62.9-64.311,16.034Zm-187.412,0,18.472-62.9,64.311-16.034,45.841,46.869-18.471,62.9-64.311,16.034Zm-187.411,0,18.472-62.9,64.311-16.034,45.841,46.869-18.472,62.9-64.312,16.034Zm-187.411,0,18.472-62.9,64.31-16.034,45.842,46.869-18.472,62.9-64.312,16.034Zm-187.411,0,18.469-62.9,64.313-16.034,45.839,46.869-18.469,62.9-64.312,16.034Zm-187.411,0,18.469-62.9,64.313-16.034,45.839,46.869-18.469,62.9-64.312,16.034Zm-187.414,0,18.472-62.9,64.313-16.034,45.839,46.869-18.472,62.9-64.311,16.034Zm-187.411,0,18.471-62.9,64.311-16.034,45.842,46.869-18.472,62.9-64.311,16.034Zm2811.175-167.983,18.471-62.906,64.313-16.034,45.839,46.869-18.471,62.9-64.31,16.034Zm-187.412,0,18.472-62.906,64.31-16.034,45.841,46.869-18.471,62.9-64.311,16.034Zm-187.411,0,18.471-62.906,64.311-16.034,45.841,46.869-18.472,62.9-64.31,16.034Zm-187.412,0,18.472-62.906,64.31-16.034,45.841,46.869-18.471,62.9-64.311,16.034Zm-187.411,0,18.471-62.906,64.311-16.034,45.841,46.869-18.472,62.9-64.31,16.034Zm-187.411,0,18.469-62.906,64.313-16.034,45.839,46.869-18.469,62.9-64.312,16.034Zm-187.411,0,18.469-62.906,64.313-16.034,45.839,46.869-18.469,62.9-64.312,16.034Zm-187.414,0,18.472-62.906,64.313-16.034,45.839,46.869-18.472,62.9-64.311,16.034Zm-187.411,0,18.471-62.906,64.311-16.034,45.842,46.869-18.472,62.9-64.311,16.034Zm-187.412,0,18.472-62.906,64.311-16.034,45.841,46.869-18.471,62.9-64.311,16.034Zm-187.411,0,18.472-62.906,64.311-16.034,45.841,46.869-18.472,62.9-64.312,16.034Zm-187.411,0,18.472-62.906,64.31-16.034,45.842,46.869-18.472,62.9-64.312,16.034Zm-187.411,0,18.469-62.906,64.313-16.034,45.839,46.869-18.469,62.9-64.312,16.034Zm-187.411,0,18.469-62.906,64.313-16.034,45.839,46.869-18.469,62.9-64.312,16.034Zm-187.414,0,18.472-62.906,64.313-16.034,45.839,46.869-18.472,62.9-64.311,16.034Zm-187.411,0,18.471-62.906,64.311-16.034,45.842,46.869-18.472,62.9-64.311,16.034Zm2811.175-167.986,18.471-62.9,64.313-16.034,45.839,46.867-18.471,62.9-64.31,16.036Zm-187.412,0,18.472-62.9,64.31-16.034,45.841,46.867-18.471,62.9-64.311,16.036Zm-187.411,0,18.471-62.9,64.311-16.034,45.841,46.867-18.472,62.9-64.31,16.036Zm-187.412,0,18.472-62.9,64.31-16.034,45.841,46.867-18.471,62.9-64.311,16.036Zm-187.411,0,18.471-62.9,64.311-16.034,45.841,46.867-18.472,62.9-64.31,16.036Zm-187.411,0,18.469-62.9,64.313-16.034,45.839,46.867-18.469,62.9-64.312,16.036Zm-187.411,0,18.469-62.9,64.313-16.034,45.839,46.867-18.469,62.9-64.312,16.036Zm-187.414,0,18.472-62.9,64.313-16.034,45.839,46.867-18.472,62.9-64.311,16.036Zm-187.411,0,18.471-62.9,64.311-16.034,45.842,46.867-18.472,62.9-64.311,16.036Zm-187.412,0,18.472-62.9,64.311-16.034,45.841,46.867-18.471,62.9-64.311,16.036Zm-187.411,0,18.472-62.9,64.311-16.034,45.841,46.867-18.472,62.9-64.312,16.036Zm-187.411,0,18.472-62.9,64.31-16.034,45.842,46.867-18.472,62.9-64.312,16.036Zm-187.411,0,18.469-62.9,64.313-16.034,45.839,46.867-18.469,62.9-64.312,16.036Zm-187.411,0,18.469-62.9,64.313-16.034,45.839,46.867-18.469,62.9-64.312,16.036Zm-187.414,0,18.472-62.9,64.313-16.034,45.839,46.867-18.472,62.9-64.311,16.036Zm-187.411,0,18.471-62.9,64.311-16.034,45.842,46.867-18.472,62.9-64.311,16.036Zm2811.175-167.986,18.471-62.9,64.313-16.034,45.839,46.869-18.471,62.9-64.31,16.034Zm-187.412,0,18.472-62.9,64.31-16.034,45.841,46.869-18.471,62.9-64.311,16.034Zm-187.411,0,18.471-62.9,64.311-16.034,45.841,46.869-18.472,62.9-64.31,16.034Zm-187.412,0,18.472-62.9,64.31-16.034,45.841,46.869-18.471,62.9-64.311,16.034Zm-187.411,0,18.471-62.9,64.311-16.034,45.841,46.869-18.472,62.9-64.31,16.034Zm-187.411,0,18.469-62.9,64.313-16.034,45.839,46.869-18.469,62.9-64.312,16.034Zm-187.411,0,18.469-62.9,64.313-16.034,45.839,46.869-18.469,62.9-64.312,16.034Zm-187.414,0,18.472-62.9,64.313-16.034,45.839,46.869-18.472,62.9-64.311,16.034Zm-187.411,0,18.471-62.9,64.311-16.034,45.842,46.869-18.472,62.9-64.311,16.034Zm-187.412,0,18.472-62.9,64.311-16.034,45.841,46.869-18.471,62.9-64.311,16.034Zm-187.411,0,18.472-62.9,64.311-16.034,45.841,46.869-18.472,62.9-64.312,16.034Zm-187.411,0,18.472-62.9,64.31-16.034,45.842,46.869-18.472,62.9-64.312,16.034Zm-187.411,0,18.469-62.9,64.313-16.034,45.839,46.869-18.469,62.9-64.312,16.034Zm-187.411,0,18.469-62.9,64.313-16.034,45.839,46.869-18.469,62.9-64.312,16.034Zm-187.414,0,18.472-62.9,64.313-16.034,45.839,46.869-18.472,62.9-64.311,16.034Zm-187.411,0,18.471-62.9,64.311-16.034,45.842,46.869-18.472,62.9-64.311,16.034Zm2811.175-167.983,18.471-62.9,64.313-16.036,45.839,46.869-18.471,62.9-64.31,16.034Zm-187.412,0,18.472-62.9,64.31-16.036,45.841,46.869-18.471,62.9-64.311,16.034Zm-187.411,0,18.471-62.9,64.311-16.036,45.841,46.869-18.472,62.9-64.31,16.034Zm-187.412,0,18.472-62.9,64.31-16.036,45.841,46.869-18.471,62.9-64.311,16.034Zm-187.411,0,18.471-62.9,64.311-16.036,45.841,46.869-18.472,62.9-64.31,16.034Zm-187.411,0,18.469-62.9,64.313-16.036,45.839,46.869L-8155,1920.6l-64.312,16.034Zm-187.411,0,18.469-62.9,64.313-16.036,45.839,46.869-18.469,62.9-64.312,16.034Zm-187.414,0,18.472-62.9,64.313-16.036,45.839,46.869-18.472,62.9-64.311,16.034Zm-187.411,0,18.471-62.9,64.311-16.036,45.842,46.869-18.472,62.9-64.311,16.034Zm-187.412,0,18.472-62.9,64.311-16.036,45.841,46.869-18.471,62.9-64.311,16.034Zm-187.411,0,18.472-62.9,64.311-16.036,45.841,46.869-18.472,62.9-64.312,16.034Zm-187.411,0,18.472-62.9,64.31-16.036L-9261,1857.7l-18.472,62.9-64.312,16.034Zm-187.411,0,18.469-62.9,64.313-16.036,45.839,46.869-18.469,62.9-64.312,16.034Zm-187.411,0,18.469-62.9,64.313-16.036,45.839,46.869-18.469,62.9-64.312,16.034Zm-187.414,0,18.472-62.9,64.313-16.036,45.839,46.869-18.472,62.9-64.311,16.034Zm-187.411,0,18.471-62.9,64.311-16.036,45.842,46.869-18.472,62.9-64.311,16.034Zm2811.175-167.986,18.471-62.9,64.313-16.036,45.839,46.869-18.471,62.9-64.31,16.036Zm-187.412,0,18.472-62.9,64.31-16.036,45.841,46.869-18.471,62.9-64.311,16.036Zm-187.411,0,18.471-62.9,64.311-16.036,45.841,46.869-18.472,62.9-64.31,16.036Zm-187.412,0,18.472-62.9,64.31-16.036,45.841,46.869-18.471,62.9-64.311,16.036Zm-187.411,0,18.471-62.9,64.311-16.036,45.841,46.869-18.472,62.9-64.31,16.036Zm-187.411,0,18.469-62.9,64.313-16.036,45.839,46.869-18.469,62.9-64.312,16.036Zm-187.411,0,18.469-62.9,64.313-16.036,45.839,46.869-18.469,62.9-64.312,16.036Zm-187.414,0,18.472-62.9,64.313-16.036,45.839,46.869-18.472,62.9-64.311,16.036Zm-187.411,0,18.471-62.9,64.311-16.036,45.842,46.869-18.472,62.9-64.311,16.036Zm-187.412,0,18.472-62.9,64.311-16.036,45.841,46.869-18.471,62.9-64.311,16.036Zm-187.411,0,18.472-62.9,64.311-16.036,45.841,46.869-18.472,62.9-64.312,16.036Zm-187.411,0,18.472-62.9,64.31-16.036,45.842,46.869-18.472,62.9-64.312,16.036Zm-187.411,0,18.469-62.9,64.313-16.036,45.839,46.869-18.469,62.9-64.312,16.036Zm-187.411,0,18.469-62.9,64.313-16.036,45.839,46.869-18.469,62.9-64.312,16.036Zm-187.414,0,18.472-62.9,64.313-16.036,45.839,46.869-18.472,62.9-64.311,16.036Zm-187.411,0,18.471-62.9,64.311-16.036,45.842,46.869-18.472,62.9-64.311,16.036ZM-7328.093,1553.8l18.471-62.9,64.313-16.034,45.839,46.869-18.471,62.9-64.31,16.034Zm-187.412,0,18.472-62.9,64.31-16.034,45.841,46.869-18.471,62.9-64.311,16.034Zm-187.411,0,18.471-62.9,64.311-16.034,45.841,46.869-18.472,62.9-64.31,16.034Zm-187.412,0,18.472-62.9,64.31-16.034,45.841,46.869-18.471,62.9-64.311,16.034Zm-187.411,0,18.471-62.9,64.311-16.034,45.841,46.869-18.472,62.9-64.31,16.034Zm-187.411,0,18.469-62.9,64.313-16.034,45.839,46.869-18.469,62.9-64.312,16.034Zm-187.411,0,18.469-62.9,64.313-16.034,45.839,46.869-18.469,62.9-64.312,16.034Zm-187.414,0,18.472-62.9,64.313-16.034,45.839,46.869-18.472,62.9-64.311,16.034Zm-187.411,0,18.471-62.9,64.311-16.034,45.842,46.869-18.472,62.9-64.311,16.034Zm-187.412,0,18.472-62.9,64.311-16.034,45.841,46.869-18.471,62.9-64.311,16.034Zm-187.411,0,18.472-62.9,64.311-16.034,45.841,46.869-18.472,62.9-64.312,16.034Zm-187.411,0,18.472-62.9,64.31-16.034,45.842,46.869-18.472,62.9-64.312,16.034Zm-187.411,0,18.469-62.9,64.313-16.034,45.839,46.869-18.469,62.9-64.312,16.034Zm-187.411,0,18.469-62.9,64.313-16.034,45.839,46.869-18.469,62.9-64.312,16.034Zm-187.414,0,18.472-62.9,64.313-16.034,45.839,46.869-18.472,62.9-64.311,16.034Zm-187.411,0,18.471-62.9,64.311-16.034,45.842,46.869-18.472,62.9-64.311,16.034Zm2811.175-167.983,18.471-62.906,64.313-16.034,45.839,46.869-18.471,62.9-64.31,16.034Zm-187.412,0,18.472-62.906,64.31-16.034,45.841,46.869-18.471,62.9-64.311,16.034Zm-187.411,0,18.471-62.906,64.311-16.034,45.841,46.869-18.472,62.9-64.31,16.034Zm-187.412,0,18.472-62.906,64.31-16.034,45.841,46.869-18.471,62.9-64.311,16.034Zm-187.411,0,18.471-62.906,64.311-16.034,45.841,46.869-18.472,62.9-64.31,16.034Zm-187.411,0,18.469-62.906,64.313-16.034,45.839,46.869-18.469,62.9-64.312,16.034Zm-187.411,0,18.469-62.906,64.313-16.034,45.839,46.869-18.469,62.9-64.312,16.034Zm-187.414,0,18.472-62.906,64.313-16.034,45.839,46.869-18.472,62.9-64.311,16.034Zm-187.411,0,18.471-62.906,64.311-16.034,45.842,46.869-18.472,62.9-64.311,16.034Zm-187.412,0,18.472-62.906,64.311-16.034,45.841,46.869-18.471,62.9-64.311,16.034Zm-187.411,0,18.472-62.906,64.311-16.034,45.841,46.869-18.472,62.9-64.312,16.034Zm-187.411,0,18.472-62.906,64.31-16.034,45.842,46.869-18.472,62.9-64.312,16.034Zm-187.411,0,18.469-62.906,64.313-16.034,45.839,46.869-18.469,62.9-64.312,16.034Zm-187.411,0,18.469-62.906,64.313-16.034,45.839,46.869-18.469,62.9-64.312,16.034Zm-187.414,0,18.472-62.906,64.313-16.034,45.839,46.869-18.472,62.9-64.311,16.034Zm-187.411,0,18.471-62.906,64.311-16.034,45.842,46.869-18.472,62.9-64.311,16.034Zm2811.175-167.986,18.471-62.9,64.313-16.036,45.839,46.869-18.471,62.9-64.31,16.036Zm-187.412,0,18.472-62.9,64.31-16.036,45.841,46.869-18.471,62.9-64.311,16.036Zm-187.411,0,18.471-62.9,64.311-16.036,45.841,46.869-18.472,62.9-64.31,16.036Zm-187.412,0,18.472-62.9,64.31-16.036,45.841,46.869-18.471,62.9-64.311,16.036Zm-187.411,0,18.471-62.9,64.311-16.036,45.841,46.869-18.472,62.9-64.31,16.036Zm-187.411,0,18.469-62.9,64.313-16.036,45.839,46.869-18.469,62.9-64.312,16.036Zm-187.411,0,18.469-62.9,64.313-16.036,45.839,46.869-18.469,62.9-64.312,16.036Zm-187.414,0,18.472-62.9,64.313-16.036,45.839,46.869-18.472,62.9-64.311,16.036Zm-187.411,0,18.471-62.9,64.311-16.036,45.842,46.869-18.472,62.9-64.311,16.036Zm-187.412,0,18.472-62.9,64.311-16.036,45.841,46.869-18.471,62.9-64.311,16.036Zm-187.411,0,18.472-62.9,64.311-16.036,45.841,46.869-18.472,62.9-64.312,16.036Zm-187.411,0,18.472-62.9,64.31-16.036,45.842,46.869-18.472,62.9-64.312,16.036Zm-187.411,0,18.469-62.9,64.313-16.036,45.839,46.869-18.469,62.9-64.312,16.036Zm-187.411,0,18.469-62.9,64.313-16.036,45.839,46.869-18.469,62.9L-9718.6,1264.7Zm-187.414,0,18.472-62.9,64.313-16.036,45.839,46.869-18.472,62.9-64.311,16.036Zm-187.411,0,18.471-62.9,64.311-16.036,45.842,46.869-18.472,62.9-64.311,16.036Zm2811.175-167.986,18.471-62.9,64.313-16.034,45.839,46.869-18.471,62.9-64.31,16.034Zm-187.412,0,18.472-62.9,64.31-16.034,45.841,46.869-18.471,62.9-64.311,16.034Zm-187.411,0,18.471-62.9,64.311-16.034,45.841,46.869-18.472,62.9-64.31,16.034Zm-187.412,0,18.472-62.9,64.31-16.034,45.841,46.869-18.471,62.9-64.311,16.034Zm-187.411,0,18.471-62.9,64.311-16.034,45.841,46.869-18.472,62.9-64.31,16.034Zm-187.411,0,18.469-62.9,64.313-16.034,45.839,46.869-18.469,62.9-64.312,16.034Zm-187.411,0,18.469-62.9,64.313-16.034,45.839,46.869-18.469,62.9-64.312,16.034Zm-187.414,0,18.472-62.9,64.313-16.034,45.839,46.869-18.472,62.9-64.311,16.034Zm-187.411,0,18.471-62.9,64.311-16.034,45.842,46.869-18.472,62.9-64.311,16.034Zm-187.412,0,18.472-62.9,64.311-16.034,45.841,46.869-18.471,62.9-64.311,16.034Zm-187.411,0,18.472-62.9,64.311-16.034,45.841,46.869-18.472,62.9-64.312,16.034Zm-187.411,0,18.472-62.9,64.31-16.034,45.842,46.869-18.472,62.9-64.312,16.034Zm-187.411,0,18.469-62.9,64.313-16.034,45.839,46.869-18.469,62.9-64.312,16.034Zm-187.411,0,18.469-62.9,64.313-16.034,45.839,46.869-18.469,62.9-64.312,16.034Zm-187.414,0,18.472-62.9,64.313-16.034,45.839,46.869-18.472,62.9-64.311,16.034Zm-187.411,0,18.471-62.9,64.311-16.034,45.842,46.869-18.472,62.9-64.311,16.034Zm0-135.916,18.471-62.9,64.311-16.034,45.842,46.869-18.472,62.9-64.311,16.034Zm2811.175-32.067,18.471-62.906,64.313-16.034,45.839,46.869-18.471,62.9-64.31,16.034Zm-187.412,0,18.472-62.906,64.31-16.034,45.841,46.869-18.471,62.9-64.311,16.034Zm-187.411,0,18.471-62.906,64.311-16.034,45.841,46.869-18.472,62.9-64.31,16.034Zm-187.412,0,18.472-62.906,64.31-16.034,45.841,46.869-18.471,62.9-64.311,16.034Zm-187.411,0,18.471-62.906,64.311-16.034,45.841,46.869-18.472,62.9-64.31,16.034Zm-187.411,0,18.469-62.906,64.313-16.034,45.839,46.869-18.469,62.9-64.312,16.034Zm-187.411,0,18.469-62.906,64.313-16.034,45.839,46.869-18.469,62.9-64.312,16.034Zm-187.414,0,18.472-62.906,64.313-16.034,45.839,46.869-18.472,62.9-64.311,16.034Zm-187.411,0,18.471-62.906,64.311-16.034,45.842,46.869-18.472,62.9-64.311,16.034Zm-187.412,0,18.472-62.906,64.311-16.034,45.841,46.869-18.471,62.9-64.311,16.034Zm-187.411,0,18.472-62.906,64.311-16.034,45.841,46.869-18.472,62.9-64.312,16.034Zm-187.411,0,18.472-62.906,64.31-16.034L-9261,849.789l-18.472,62.9-64.312,16.034Zm-187.411,0,18.469-62.906,64.313-16.034,45.839,46.869-18.469,62.9-64.312,16.034Zm-187.411,0,18.469-62.906,64.313-16.034,45.839,46.869-18.469,62.9-64.312,16.034Zm-187.414,0,18.472-62.906,64.313-16.034,45.839,46.869-18.472,62.9-64.311,16.034Z" transform="translate(9111.25 -3703.68) rotate(-17)" fill="#fff" opacity="0.05"/></g></g></g></svg>