<svg id="final-versions" xmlns="http://www.w3.org/2000/svg" width="144" height="31.21" viewBox="0 0 144 31.21">
  <defs>
    <style>
      .cls-1 {
        fill: #302a6d;
      }

      .cls-2 {
        fill: #fff;
      }

      .cls-3 {
        fill: #94d5e8;
      }
    </style>
  </defs>
  <title>web-header-logo-noBg</title>
  <g>
    <g>
      <path class="cls-1" d="M50.89,19.68H54.8l0,.11a7.65,7.65,0,0,1-2.4,6,9.47,9.47,0,0,1-6.69,2.28,9,9,0,0,1-6.88-2.85,10.28,10.28,0,0,1-2.66-7.32V13.31A10.42,10.42,0,0,1,38.83,6a9,9,0,0,1,6.89-2.85,9.62,9.62,0,0,1,6.73,2.25,7.67,7.67,0,0,1,2.4,6.09l0,.09H50.89a5.28,5.28,0,0,0-1.33-3.84,5.17,5.17,0,0,0-3.85-1.35,4.73,4.73,0,0,0-4,2,8,8,0,0,0-1.47,5v4.65a7.9,7.9,0,0,0,1.5,5,4.83,4.83,0,0,0,4,1.94,5.06,5.06,0,0,0,3.81-1.33A5.24,5.24,0,0,0,50.89,19.68Z"/>
      <path class="cls-1" d="M60.77,27.7H57L65.49,3.52h4L78,27.7H73.85l-2-5.72H62.76ZM67.35,8.64,64,18.39h6.68L67.41,8.64Z"/>
      <path class="cls-1" d="M88.41,27.7H81.55V3.62h6.86a17.9,17.9,0,0,1,5.18.69,10.26,10.26,0,0,1,3.93,2.14A9.31,9.31,0,0,1,100,10.19a15,15,0,0,1,.87,5.37A15.14,15.14,0,0,1,100,21a9.51,9.51,0,0,1-2.53,3.78A10.34,10.34,0,0,1,93.56,27,17.48,17.48,0,0,1,88.41,27.7ZM85.62,7.4V24.06h3.16a11.93,11.93,0,0,0,3.6-.48,5.77,5.77,0,0,0,2.5-1.49,6.14,6.14,0,0,0,1.48-2.63,13.72,13.72,0,0,0,.49-3.9,12.29,12.29,0,0,0-.5-3.71,6,6,0,0,0-1.49-2.53,6,6,0,0,0-2.52-1.45,12.21,12.21,0,0,0-3.63-.47Z"/>
      <path class="cls-1" d="M109.24,27.7h-4V3.62h8.63a15.36,15.36,0,0,1,3.84.44,8.08,8.08,0,0,1,2.83,1.34,5.76,5.76,0,0,1,1.76,2.26,7.68,7.68,0,0,1,.61,3.18,8.49,8.49,0,0,1-.36,2.57,5.86,5.86,0,0,1-1.05,2,6.17,6.17,0,0,1-1.67,1.41,8.66,8.66,0,0,1-2.26.88l5.67,10h-4.37l-5.4-9.5h-4.22Zm0-20.37v7.33h4.46a11.46,11.46,0,0,0,2.27-.19,4.5,4.5,0,0,0,1.61-.6,2.66,2.66,0,0,0,1-1.14,4.3,4.3,0,0,0,.33-1.79,4,4,0,0,0-.32-1.72,2.63,2.63,0,0,0-1-1.11A4.6,4.6,0,0,0,116,7.52a12.77,12.77,0,0,0-2.32-.19Z"/>
      <path class="cls-1" d="M142.3,13.53v3.24H131.68v7.69H144V27.7H127.63V3.44h16.26V6.68H131.68v6.85Z"/>
    </g>
    <g>
      <polygon class="cls-2" points="19.38 1.52 11.83 1.52 5.29 5.29 1.52 11.83 1.52 19.38 5.29 25.91 11.83 29.69 19.38 29.69 25.91 25.91 29.69 19.38 29.69 11.83 25.91 5.29 19.38 1.52"/>
      <g id="fill">
        <path class="cls-3" d="M10.78,11.34C8.54,13.1,6,19.13,5.28,25.22l3,3L15.6,30.2l7.3-1.95,2.19-2.19,0,0c-.36-.39-2.18-1.84-2.18-1.84l-.75-3.88a2,2,0,0,1,1.24.23,3.36,3.36,0,0,0-.66-2.46c1,.27,1.87,1.58,1.38,3.35a2.86,2.86,0,0,0,.41-5.23,3.51,3.51,0,0,0-1.17-4L15.77,7.54l.86,1.79A14.72,14.72,0,0,1,10,5.05a12.07,12.07,0,0,0,1.47,3.4L9.87,7.5a7.7,7.7,0,0,0,1.65,3.22Z"/>
      </g>
      <g id="eye">
        <path class="cls-2" d="M20,14.1a1.91,1.91,0,0,1,.55,1.4,2.13,2.13,0,0,1-.83,1.44c-1.06-.36-1.09-.51-1.09-.51a2.51,2.51,0,0,1,.14-2A2.23,2.23,0,0,1,20,14.1Z"/>
        <path class="cls-1" d="M19.23,15.42c0,.43.13.82.34.85s.33-.45.34-.79,0-.78-.23-.81S19.27,15,19.23,15.42Z"/>
        <path class="cls-1" d="M21.38,14.28l0,0A4.78,4.78,0,0,0,20.33,14a5.88,5.88,0,0,0-1.11,0,4.85,4.85,0,0,0-1.12.23,2.91,2.91,0,0,0-1.05.59l-.17.15.13.24h0a4.78,4.78,0,0,0,.69.8,4.5,4.5,0,0,0,2.78,1.18v-.06a6.13,6.13,0,0,1-.61-.18,1.59,1.59,0,0,0,.51-.49,1.68,1.68,0,0,0,.28-.82,1.88,1.88,0,0,0-.14-.85,1.52,1.52,0,0,0-.42-.55h.21A4.19,4.19,0,0,1,21.38,14.28Zm-3.31,1.33a4,4,0,0,1-.38-.56,2.55,2.55,0,0,1,.6-.41,3.38,3.38,0,0,1,.44-.18,2,2,0,0,0-.17.32,2.16,2.16,0,0,0-.14.57,2.27,2.27,0,0,0,0,.58l0,.14A4.58,4.58,0,0,1,18.07,15.61Zm2.16-.77a2.9,2.9,0,0,1,0,.72,2.86,2.86,0,0,1-.17.7,4.88,4.88,0,0,1-.29.62,4.18,4.18,0,0,1-1.07-.61l-.16-.13a1.74,1.74,0,0,1,0-.22,2.67,2.67,0,0,1,.1-1.12,1.89,1.89,0,0,1,.16-.36l.48-.14a6.32,6.32,0,0,1,.76-.11A3.23,3.23,0,0,1,20.23,14.84Z"/>
      </g>
      <g>
        <path class="cls-1" d="M18.25,18.77l.21-.19a1.89,1.89,0,0,0,.2-.2l.18-.22,0,0-.26.08-.25.07-.26,0-.25,0,.22.56Z"/>
        <path class="cls-1" d="M14.48,10.89,14.2,11l-.27.09.31.47.18-.19.19-.17a1.73,1.73,0,0,1,.21-.17l.15-.13-.08,0h-.14Z"/>
        <path class="cls-1" d="M16.59,19.49a2.91,2.91,0,0,0,.58-.15L17,18.41a2.49,2.49,0,0,1-.47,0l-.23,0-.22-.05L16,19.56l.3,0A1.54,1.54,0,0,0,16.59,19.49Z"/>
        <path class="cls-1" d="M13.18,15.59a3,3,0,0,1-.09-.41l-1.69.21q0,.31.09.63a4.76,4.76,0,0,0,.19.61L13.32,16C13.27,15.85,13.22,15.72,13.18,15.59Z"/>
        <path class="cls-1" d="M11.55,13.76a4.26,4.26,0,0,0-.13.62l1.6.12c0-.14,0-.28,0-.43l0-.21a1.7,1.7,0,0,1,0-.22l-1.35-.46a2.49,2.49,0,0,0-.11.29A2.47,2.47,0,0,0,11.55,13.76Z"/>
        <path class="cls-1" d="M29.12,7.8,23.41,2.09,15.6,0,7.8,2.09,2.09,7.8,0,15.6l2.09,7.81L7.8,29.12l7.8,2.09,7.81-2.09,5.71-5.71,2.09-7.81ZM22.4,27.37l-6.8,1.82L8.81,27.37l-3-3,.07-.32c.27-1.2.56-2.39.89-3.57l0-.07a1.2,1.2,0,0,0,.47.1,1.23,1.23,0,0,0,.54-.13l1.6,2.29a1,1,0,0,0-.31.7,1,1,0,0,0,1,1,1,1,0,0,0,.43-.1l2.2,2.11a.72.72,0,0,0-.12.39.73.73,0,0,0,1.46,0l3.09-.45A1.17,1.17,0,0,0,19.43,26a1.21,1.21,0,0,0-.15-.57l1.94-1.41a1.17,1.17,0,0,0,.85.36,1.27,1.27,0,0,0,.55-.13l.06.19a.06.06,0,0,1,0,0l0,0a.25.25,0,0,0,0,.09l0,0,0,0,0,.06c.05.08.11.14.16.21s.21.24.32.35.38.38.57.55ZM15,10.86a8.73,8.73,0,0,0,1.54.52c.58.15,1.16.26,1.74.37s1.16.23,1.73.38a6.09,6.09,0,0,1,1.65.62A6.36,6.36,0,0,0,20,12c-.57-.18-1.14-.32-1.72-.47s-1.14-.29-1.7-.46A8.78,8.78,0,0,1,15,10.44L14.24,10l-.73-.49c-.24-.16-.47-.34-.69-.52s-.41-.39-.6-.6h0l0,0a7,7,0,0,1-1-1.63l.37.27c.51.37,1,.72,1.57,1s1.09.64,1.66.93a13.76,13.76,0,0,0,1.77.74l.94.33a12.4,12.4,0,0,1-.7-1.19A20.82,20.82,0,0,0,18.52,10c.52.31,1.06.61,1.6.9l1.62.83.82.4.4.21.39.21a2.73,2.73,0,0,1,1.1,1.18,2.77,2.77,0,0,1,.24.79,2.88,2.88,0,0,1,0,.83,2.3,2.3,0,0,1-.84,1.46,1.68,1.68,0,0,0,.73-.42,3.18,3.18,0,0,1,1,1.12A2.68,2.68,0,0,1,25.85,19a2.62,2.62,0,0,1-.56,1.4,1.7,1.7,0,0,1-.54.46l-.08,0a3.55,3.55,0,0,0,.06-.47,2.72,2.72,0,0,0-.18-1.16,2,2,0,0,0-.73-.91,3.16,3.16,0,0,0-1-.44l-.62-.15.48.4h0a1.43,1.43,0,0,1,.32.5,3.09,3.09,0,0,1,.18.59,3.72,3.72,0,0,1,.06.94l-.08,0a5.27,5.27,0,0,1-.74-.49h0l-.71-.55,0,.89A13.37,13.37,0,0,0,22,21.85c0,.08,0,.15.05.23a1.17,1.17,0,0,0-1.14,1.08L15,23.63a.73.73,0,0,0-.7-.53.74.74,0,0,0-.52.21L8.38,19.7a1,1,0,0,0,.06-.35,1.18,1.18,0,0,0-1-1.15c.13-.4.27-.81.42-1.21a23.59,23.59,0,0,1,1.5-3.32,13.61,13.61,0,0,1,1-1.51,7.16,7.16,0,0,1,1.26-1.26l.2-.15-.16-.18h0a6.76,6.76,0,0,1-.55-.74,7.68,7.68,0,0,1-.47-.78,6.45,6.45,0,0,1-.34-.82.49.49,0,0,1,0-.11,4.7,4.7,0,0,0,1.37.51l.13.14a6.64,6.64,0,0,0,.7.61,7.71,7.71,0,0,0,.75.52c.25.16.51.31.77.45s.51.3.79.43l.09.05m2.2,15.24L14,26.51a.73.73,0,0,0-.69-.48.74.74,0,0,0-.41.13l-2.16-2.08a.94.94,0,0,0,.27-.45l2.58.27a.73.73,0,0,0,1.28.41l2.3,1.28a1.08,1.08,0,0,0-.09.44Zm-7-3.66a1,1,0,0,0-.43.1l-1.6-2.29A1.27,1.27,0,0,0,8.26,20l5.39,3.59s0,0,0,.05l-2.58-.27A1,1,0,0,0,10.08,22.41ZM15,24.05a.31.31,0,0,0,0-.13l5.87-.47a1.11,1.11,0,0,0,.13.36l-1.94,1.42a1.17,1.17,0,0,0-.85-.37,1.16,1.16,0,0,0-.94.48ZM27.37,22.4l-2.81,2.81L24,24.68l-.28-.3a1.34,1.34,0,0,1-.11-.14l0,0h0v0c-.05-.12-.1-.26-.14-.39s-.09-.27-.13-.41q-.25-.83-.45-1.68c-.07-.33-.14-.67-.19-1h0a3.41,3.41,0,0,0,1,.13s0-.7,0-.93a5.1,5.1,0,0,0-.13-.68,3.23,3.23,0,0,0-.25-.65l0-.06a1.47,1.47,0,0,1,.31.23,1.57,1.57,0,0,1,.49.76,2,2,0,0,1,0,.91,2.37,2.37,0,0,1-.11.46c0,.07-.05.15-.08.22l-.05.11,0,0,0,0,.36.55a1.5,1.5,0,0,0,.52-.09,2.26,2.26,0,0,0,.47-.22,2.66,2.66,0,0,0,.69-.69,3.14,3.14,0,0,0,.56-1.76,3.06,3.06,0,0,0-.48-1.75,3.76,3.76,0,0,0-1.14-1.14,2.33,2.33,0,0,0,.34-.71,2.5,2.5,0,0,0,.08-1,3,3,0,0,0-.24-1A3.31,3.31,0,0,0,23.67,12l-.41-.23-.4-.23-.79-.44c-.54-.29-1.07-.57-1.59-.87s-1.05-.6-1.56-.91A22.33,22.33,0,0,1,16,7.25h0l-.93-.81.29,1.19c0,.18.09.35.15.52s.1.27.16.4l-.61-.29c-.54-.27-1.08-.57-1.6-.89s-1-.67-1.53-1-1-.73-1.45-1.12h0L9.36,4.3l.53,1.35a10.83,10.83,0,0,0,.79,1.65,4.11,4.11,0,0,0,.24.39A8,8,0,0,1,10,7.11h0l-.7-.43s.49,2.83,1.9,4A8,8,0,0,0,10,11.85a12.7,12.7,0,0,0-1.1,1.54,23.77,23.77,0,0,0-1.67,3.35c-.48,1.15-.89,2.33-1.26,3.51s-.67,2.22-1,3.33L3.84,22.4,2,15.6,3.84,8.81l5-5L15.6,2l6.8,1.83,5,5,1.82,6.79Z"/>
        <path class="cls-1" d="M15,19.48l.41-1.41a4.53,4.53,0,0,1-.75-.42l-.84,1.41A4.49,4.49,0,0,0,15,19.48Z"/>
        <path class="cls-1" d="M12.15,17.54a4.4,4.4,0,0,0,.38.5l.22.23.24.22,1.16-1.28L14,17.06l-.14-.16-.24-.34Z"/>
        <path class="cls-1" d="M13.75,12.13l-.63-.63a4.22,4.22,0,0,0-.86.83l1.05.63A4.73,4.73,0,0,1,13.75,12.13Z"/>
      </g>
    </g>
  </g>
</svg>
